<svg xmlns="http://www.w3.org/2000/svg" xmlns:xlink="http://www.w3.org/1999/xlink" viewBox="0 0 602.29 663.37">
  <defs>
    <clipPath id="clip-path">
      <path d="M303.16,510.79c-124.66,0-226.07-101.41-226.07-226.07S178.5,58.66,303.16,58.66,529.23,160.07,529.23,284.72,427.81,510.79,303.16,510.79Zm0-379.79c-84.77,0-153.73,69-153.73,153.72s69,153.73,153.73,153.73,153.72-69,153.72-153.73S387.92,131,303.16,131Z" style="fill: none"/>
    </clipPath>
  </defs>
  <title>Logo Pertaflosim_kotak-2_g</title>
  <g id="Layer_2" data-name="Layer 2">
    <g id="Layer_1-2" data-name="Layer 1">
      <text transform="translate(79.51 645.48)" style="font-size: 71.54206848144531px;fill: #999;font-family: Arvo-Bold, Arvo;font-weight: 700">PertafloSIM</text>
      <g>
        <path d="M303.16,58.66C178.5,58.66,77.09,160.07,77.09,284.72S178.5,510.79,303.16,510.79,529.23,409.38,529.23,284.72,427.81,58.66,303.16,58.66ZM414.1,117.12a12.6,12.6,0,1,1-12.59,12.59A12.59,12.59,0,0,1,414.1,117.12ZM290.57,81.23A12.59,12.59,0,1,1,278,93.82,12.59,12.59,0,0,1,290.57,81.23ZM132,380.5a12.6,12.6,0,1,1,12.59-12.59A12.59,12.59,0,0,1,132,380.5Zm76.44,83.13A12.59,12.59,0,1,1,221.06,451,12.59,12.59,0,0,1,208.47,463.63Zm111,24.59A12.59,12.59,0,1,1,332,475.63,12.59,12.59,0,0,1,319.44,488.22Zm-16.28-49.77c-84.77,0-153.73-69-153.73-153.73S218.39,131,303.16,131s153.72,69,153.72,153.72S387.92,438.45,303.16,438.45Zm179.23-208A12.59,12.59,0,1,1,495,217.9,12.59,12.59,0,0,1,482.39,230.49Z" style="fill: #ccc"/>
        <path d="M358.55,256.7a8.25,8.25,0,0,0-11.68,0l-28.69,28.68-11.69,11.69-7.73,7.74a3.36,3.36,0,0,1-4.72,0l-13-13.05h0l-14.72-14.71,0,0a8.26,8.26,0,0,0-11.63,11.63l0,0,18.1,18.1h0l9.67,9.66a19.86,19.86,0,0,0,28.08,0l7.74-7.73,11.69-11.69,28.68-28.69A8.25,8.25,0,0,0,358.55,256.7Z" style="fill: #ccc"/>
        <g style="clip-path: url(#clip-path)">
          <polygon points="276.33 403.59 602.29 591.78 602.29 215.4 276.33 403.59" style="fill: #999"/>
          <polygon points="17.01 376 334.13 173.27 0 0 17.01 376" style="fill: #999"/>
        </g>
        <path d="M303.16,438.45c-84.77,0-153.73-69-153.73-153.73S218.39,131,303.16,131s153.72,69,153.72,153.72S387.92,438.45,303.16,438.45Zm0-258.26A104.54,104.54,0,1,0,407.69,284.72,104.65,104.65,0,0,0,303.16,180.19Z" style="fill: #ccc"/>
      </g>
    </g>
  </g>
</svg>
