<svg xmlns="http://www.w3.org/2000/svg" xmlns:xlink="http://www.w3.org/1999/xlink" viewBox="0 0 881.52 251.3">
  <defs>
    <clipPath id="clip-path">
      <path d="M128.73,216.91a96,96,0,1,1,96-96A96.11,96.11,0,0,1,128.73,216.91Zm0-161.28A65.28,65.28,0,1,0,194,120.91,65.35,65.35,0,0,0,128.73,55.63Z" style="fill: none"/>
    </clipPath>
  </defs>
  <title>Logo Pertaflosim_panjang-2_w</title>
  <g id="Layer_2" data-name="Layer 2">
    <g id="Layer_1-2" data-name="Layer 1">
      <text transform="translate(267.34 150.87)" style="font-size: 96.63893127441406px;fill: #fff;font-family: Arvo-Bold, Arvo;font-weight: 700">PertafloSIM</text>
      <g>
        <path d="M128.73,24.91a96,96,0,1,0,96,96A96.11,96.11,0,0,0,128.73,24.91Zm47.12,24.83a5.35,5.35,0,1,1-5.35,5.34A5.34,5.34,0,0,1,175.85,49.74ZM123.39,34.49A5.35,5.35,0,1,1,118,39.84,5.35,5.35,0,0,1,123.39,34.49ZM56.06,161.58a5.35,5.35,0,1,1,5.35-5.35A5.35,5.35,0,0,1,56.06,161.58Zm32.47,35.3a5.35,5.35,0,1,1,5.34-5.35A5.35,5.35,0,0,1,88.53,196.88Zm47.12,10.44A5.35,5.35,0,1,1,141,202,5.35,5.35,0,0,1,135.65,207.32Zm-6.92-21.13A65.28,65.28,0,1,1,194,120.91,65.36,65.36,0,0,1,128.73,186.19Zm76.11-88.31a5.35,5.35,0,1,1,5.35-5.35A5.35,5.35,0,0,1,204.84,97.88Z" style="fill: #fff"/>
        <path d="M152.26,109a3.49,3.49,0,0,0-5,0l-12.19,12.18-5,5-3.28,3.28a1.4,1.4,0,0,1-2,0l-5.55-5.54h0l-6.25-6.25h0a3.5,3.5,0,0,0-4.93,4.93l0,0,7.69,7.69h0l4.1,4.11a8.44,8.44,0,0,0,11.93,0l3.28-3.29,5-5L152.26,114A3.51,3.51,0,0,0,152.26,109Z" style="fill: #fff"/>
        <g style="clip-path: url(#clip-path)">
          <polygon points="117.34 171.38 255.76 251.3 255.76 91.47 117.34 171.38" style="fill: #ccc"/>
          <polygon points="7.22 159.67 141.89 73.58 0 0 7.22 159.67" style="fill: #ccc"/>
        </g>
        <path d="M128.73,186.19A65.28,65.28,0,1,1,194,120.91,65.36,65.36,0,0,1,128.73,186.19Zm0-109.67a44.39,44.39,0,1,0,44.39,44.39A44.44,44.44,0,0,0,128.73,76.52Z" style="fill: #fff"/>
      </g>
    </g>
  </g>
</svg>
