<svg id="Layer_1" data-name="Layer 1" xmlns="http://www.w3.org/2000/svg" xmlns:xlink="http://www.w3.org/1999/xlink" width="870" height="220" viewBox="0 0 870 220"><defs><clipPath id="clip-path"><path d="M109.5,211.54A101.54,101.54,0,1,1,211,110,101.65,101.65,0,0,1,109.5,211.54ZM109.5,41A69.05,69.05,0,1,0,178.55,110,69.13,69.13,0,0,0,109.5,41Z" style="fill:none"/></clipPath></defs><title>Logo Pertaflosim_panjang-2</title><path d="M253.19,68.43h33a28.78,28.78,0,0,1,10.14,1.72,25.6,25.6,0,0,1,8,4.65,21.67,21.67,0,0,1,5.24,6.75,17.85,17.85,0,0,1,1.88,8A28.89,28.89,0,0,1,310,98.89a20,20,0,0,1-4.6,7.57,22,22,0,0,1-7.88,5.07,30.78,30.78,0,0,1-11.28,1.87h-10V127h6.56V140H253.19V127h7.41V81.4h-7.41Zm23.07,13v19.21h6.47q5.37,0,8.54-2.27t3.16-7.17a9,9,0,0,0-3-7.17q-3-2.59-8.73-2.6Z" style="fill:#999"/><path d="M330.38,118.59l.15,1.46a9.55,9.55,0,0,0,1.77,3.73,11.63,11.63,0,0,0,2.95,2.69A13.45,13.45,0,0,0,339,128.1a16.57,16.57,0,0,0,4.2.54,30.33,30.33,0,0,0,4-.26,33.35,33.35,0,0,0,3.71-.71c1.19-.3,2.36-.64,3.49-1s2.28-.81,3.45-1.25l5.19,9.68c-1.8,1.1-3.44,2-4.94,2.8a31.12,31.12,0,0,1-4.5,1.91,25.9,25.9,0,0,1-4.82,1.11,42.92,42.92,0,0,1-5.94.36,28.83,28.83,0,0,1-11.33-2.1,23.85,23.85,0,0,1-13.47-14.09,29.27,29.27,0,0,1-1.77-10.19,27.1,27.1,0,0,1,1.87-10.1A24.54,24.54,0,0,1,331.56,91,26.33,26.33,0,0,1,342,89a25.66,25.66,0,0,1,10.22,1.92,21.3,21.3,0,0,1,7.52,5.28,23.48,23.48,0,0,1,4.72,7.93,30.87,30.87,0,0,1,1.79,9.79,23.24,23.24,0,0,1,.17,2.33c0,.78,0,1.57-.07,2.39Zm11.28-17.84a13.82,13.82,0,0,0-4.5.64,9.31,9.31,0,0,0-3.14,1.74,8.75,8.75,0,0,0-2,2.53,14.15,14.15,0,0,0-1.18,3h20.43a15.4,15.4,0,0,0-.94-3,8.09,8.09,0,0,0-1.7-2.5,7.64,7.64,0,0,0-2.76-1.72A11.74,11.74,0,0,0,341.66,100.75Z" style="fill:#999"/><path d="M418,108.87H404.75v-5.05a22.61,22.61,0,0,0-3.54.26,9.3,9.3,0,0,0-2.8.87,5.85,5.85,0,0,0-2,1.7,6.55,6.55,0,0,0-1.16,2.69V127h10V140h-31.9V127h7.31V104h-7.22V91.08h21.76v3.44A15.67,15.67,0,0,1,399.8,92a17.4,17.4,0,0,1,5.66-.89c2.08,0,4.21,0,6.42,0s4.24,0,6.13,0Z" style="fill:#999"/><path d="M444.48,91.08h9.77v12.36h-9.86l-.1,20.67a12,12,0,0,0,.29,2.9,4.55,4.55,0,0,0,.82,1.77,2.79,2.79,0,0,0,1.3.9,6.13,6.13,0,0,0,1.75.23,13,13,0,0,0,3.16-.35c.91-.24,1.82-.51,2.74-.83l2,9.11a22.34,22.34,0,0,1-5.36,2.41,24.54,24.54,0,0,1-7,.89,15.44,15.44,0,0,1-5.5-1,12.93,12.93,0,0,1-4.6-3,14.74,14.74,0,0,1-3.16-5,18.8,18.8,0,0,1-1.13-7l.14-21.66h-7V91.08h7.08l.09-11.7,14.68-7Z" style="fill:#999"/><path d="M493.84,137.32c-1.1.69-2.11,1.28-3,1.77a16.65,16.65,0,0,1-2.74,1.18,16.42,16.42,0,0,1-2.83.66,22.57,22.57,0,0,1-3.21.21,23.92,23.92,0,0,1-7.85-1.2,17.2,17.2,0,0,1-5.85-3.3,14.27,14.27,0,0,1-3.66-5,15,15,0,0,1-1.27-6.2,15.17,15.17,0,0,1,1.29-6.28,13.81,13.81,0,0,1,3.75-4.93,17.81,17.81,0,0,1,6-3.21,26.41,26.41,0,0,1,8.14-1.15,47.62,47.62,0,0,1,6.11.35c1.84.24,3.55.53,5.12.87v-1.51a6.75,6.75,0,0,0-.71-3.18,6,6,0,0,0-2-2.22,8.63,8.63,0,0,0-3.07-1.27,17.71,17.71,0,0,0-3.91-.41,31.4,31.4,0,0,0-7.81.88,29.68,29.68,0,0,0-6.49,2.52l-4.53-9.15a40.11,40.11,0,0,1,10.07-5.05A35.06,35.06,0,0,1,486.57,90,33.27,33.27,0,0,1,495,91a17,17,0,0,1,6.68,3.3,15.56,15.56,0,0,1,4.37,6,22.73,22.73,0,0,1,1.58,9V127h6.56V140H493.84ZM483.08,130a16.26,16.26,0,0,0,6.09-1.09,17.85,17.85,0,0,0,4.67-2.64v-6.23H482.52a7,7,0,0,0-2.13.33,6.51,6.51,0,0,0-1.86.94,4.77,4.77,0,0,0-1.32,1.51,4.27,4.27,0,0,0-.5,2.08,4.74,4.74,0,0,0,1.58,3.63A6.83,6.83,0,0,0,483.08,130Z" style="fill:#999"/><path d="M545.42,91.08h8.91v12.36h-8.91V127h9V140H524.09V127h7.31V103.44H524V91.08h7.41V83a17.73,17.73,0,0,1,1.51-7.55,16.28,16.28,0,0,1,4-5.47,17,17,0,0,1,5.82-3.35,21.17,21.17,0,0,1,6.94-1.13,25.81,25.81,0,0,1,4.81.4,21,21,0,0,1,3.73,1A15.23,15.23,0,0,1,561,68.19a12.3,12.3,0,0,1,1.77,1.32l-5.42,10a9.09,9.09,0,0,0-2.46-1.27,10.19,10.19,0,0,0-3.35-.48,6.66,6.66,0,0,0-2.38.43,5.49,5.49,0,0,0-1.93,1.23,5.38,5.38,0,0,0-1.3,2,7.56,7.56,0,0,0-.47,2.81Z" style="fill:#999"/><path d="M561.65,66.54h22V127h7.55V140H561.65V127h7.55V79.47h-7.55Z" style="fill:#999"/><path d="M599.07,115.33a25.86,25.86,0,0,1,1.93-10,25,25,0,0,1,5.38-8.16,25.44,25.44,0,0,1,8.21-5.53,28.12,28.12,0,0,1,21,0,25.42,25.42,0,0,1,8.23,5.53,24.84,24.84,0,0,1,5.36,8.16,26.22,26.22,0,0,1,1.91,10,26.78,26.78,0,0,1-1.87,10,24.41,24.41,0,0,1-13.49,13.75,29,29,0,0,1-21.33,0,24.29,24.29,0,0,1-13.45-13.7A27.12,27.12,0,0,1,599.07,115.33Zm14.11,0a13.52,13.52,0,0,0,.94,5.12,12.74,12.74,0,0,0,2.57,4,11.83,11.83,0,0,0,3.78,2.64,11.27,11.27,0,0,0,4.6.94,11.54,11.54,0,0,0,4.64-.92,10.65,10.65,0,0,0,3.73-2.62,12.21,12.21,0,0,0,2.48-4,14.28,14.28,0,0,0,.9-5.17,14.69,14.69,0,0,0-.9-5.28,11.62,11.62,0,0,0-2.48-4,10.55,10.55,0,0,0-3.73-2.53,11.49,11.49,0,0,0-4.64-.82,11.36,11.36,0,0,0-4.6.82,11.22,11.22,0,0,0-3.78,2.53,12,12,0,0,0-2.57,4A14.07,14.07,0,0,0,613.18,115.33Z" style="fill:#999"/><path d="M694.15,88.58A7.9,7.9,0,0,0,693,85.46a9.25,9.25,0,0,0-2.36-2.52,11.86,11.86,0,0,0-7-2.29,14.26,14.26,0,0,0-3.35.38,8.22,8.22,0,0,0-2.71,1.15,5.73,5.73,0,0,0-1.84,2,5.87,5.87,0,0,0-.69,2.92,5.62,5.62,0,0,0,.92,3.38,7.33,7.33,0,0,0,2.36,2.05,13.53,13.53,0,0,0,3.19,1.27c1.16.32,2.29.67,3.39,1l13,4.34a20.84,20.84,0,0,1,5,2.6,17.44,17.44,0,0,1,4.08,4,18.92,18.92,0,0,1,2.71,5.43,22.34,22.34,0,0,1,1,6.89,23,23,0,0,1-1.92,9.48A21.36,21.36,0,0,1,703.4,135a24.61,24.61,0,0,1-8.26,4.77,33.85,33.85,0,0,1-18.43.78,26.29,26.29,0,0,1-6.67-2.67,22.5,22.5,0,0,1-5.29-4.18,18.33,18.33,0,0,1-3.54-5.49h-4.86V114h17.08v2.93a10.88,10.88,0,0,0,.69,3.92,8.44,8.44,0,0,0,2,3.11,9.34,9.34,0,0,0,3.45,2,14.53,14.53,0,0,0,4.86.73q4.24,0,6.46-2a6.9,6.9,0,0,0,2.22-5.45,5.4,5.4,0,0,0-.78-3,7.06,7.06,0,0,0-2-2,13.2,13.2,0,0,0-2.73-1.39c-1-.38-2-.73-3-1l-10.81-3.49a27.15,27.15,0,0,1-5.92-2.64,20.35,20.35,0,0,1-5.05-4.25,19.6,19.6,0,0,1-3.49-6,21.79,21.79,0,0,1-1.3-7.81A20.94,20.94,0,0,1,660,78.6a18.91,18.91,0,0,1,5.28-6.73,23.73,23.73,0,0,1,8.07-4.15,35.3,35.3,0,0,1,10.24-1.42,30.76,30.76,0,0,1,8.12,1A28.29,28.29,0,0,1,698.37,70a21.19,21.19,0,0,1,5,3.9,17.14,17.14,0,0,1,3.14,4.55h4.72V92.73H694.15Z" style="fill:#acc42a"/><path d="M718.5,68.43h30.62V81.36h-7.55V127h7.55V140H718.5V127h7.41V81.36H718.5Z" style="fill:#acc42a"/><path d="M756.72,127h6.65V81.4h-6.65v-13h29.44l21.1,51.62,19.58-51.62h29.87v13h-6.65V127h6.55V140H829.86V127h4.91V85.89l-21.43,53.22H800.08L778.28,87.3V127h5.34V140h-26.9Z" style="fill:#acc42a"/><path d="M109.5,8.46A101.54,101.54,0,1,0,211,110,101.65,101.65,0,0,0,109.5,8.46Zm49.83,26.26a5.66,5.66,0,1,1-5.65,5.66A5.65,5.65,0,0,1,159.33,34.72ZM103.85,18.6a5.66,5.66,0,1,1-5.66,5.65A5.65,5.65,0,0,1,103.85,18.6ZM32.64,153a5.66,5.66,0,1,1,5.65-5.66A5.66,5.66,0,0,1,32.64,153ZM67,190.36a5.66,5.66,0,1,1,5.66-5.66A5.65,5.65,0,0,1,67,190.36Zm49.85,11a5.66,5.66,0,1,1,5.65-5.65A5.65,5.65,0,0,1,116.82,201.4Zm-7.32-22.35A69.05,69.05,0,1,1,178.55,110,69.13,69.13,0,0,1,109.5,179.05ZM190,85.64A5.66,5.66,0,1,1,195.66,80,5.65,5.65,0,0,1,190,85.64Z" style="fill:#acc42a"/><path d="M134.38,97.41a3.71,3.71,0,0,0-5.25,0L116.25,110.3,111,115.54,107.52,119a1.5,1.5,0,0,1-2.11,0l-5.86-5.86h0l-6.61-6.61h0a3.71,3.71,0,0,0-5.22,5.22l0,0,8.14,8.13h0l4.34,4.34a8.92,8.92,0,0,0,12.61,0l3.48-3.48,5.25-5.25,12.88-12.88A3.71,3.71,0,0,0,134.38,97.41Z" style="fill:#acc42a"/><g style="clip-path:url(#clip-path)"><polygon points="97.45 163.39 243.86 247.92 243.86 78.86 97.45 163.39" style="fill:#ed1b2f"/><polygon points="-19.03 151 123.41 59.94 -26.66 -17.89 -19.03 151" style="fill:#006cb8"/></g><path d="M109.5,179.05A69.05,69.05,0,1,1,178.55,110,69.13,69.13,0,0,1,109.5,179.05Zm0-116a47,47,0,1,0,46.95,47A47,47,0,0,0,109.5,63.05Z" style="fill:#acc42a"/></svg>