<svg id="Layer_1" data-name="Layer 1" xmlns="http://www.w3.org/2000/svg" xmlns:xlink="http://www.w3.org/1999/xlink" width="870" height="220" viewBox="0 0 870 220"><defs><clipPath id="clip-path"><path d="M106.61,206a96,96,0,1,1,96-96A96.1,96.1,0,0,1,106.61,206Zm0-161.28A65.28,65.28,0,1,0,171.89,110,65.35,65.35,0,0,0,106.61,44.72Z" style="fill:none"/></clipPath></defs><title>Logo Pertaflosim_panjang-2_w</title><path d="M250.54,68.43h33a28.87,28.87,0,0,1,10.15,1.72,25.55,25.55,0,0,1,8,4.65,21.67,21.67,0,0,1,5.24,6.75,17.72,17.72,0,0,1,1.89,8,28.93,28.93,0,0,1-1.49,9.37,19.89,19.89,0,0,1-4.6,7.57,21.87,21.87,0,0,1-7.88,5.07,30.78,30.78,0,0,1-11.28,1.87h-9.95V127h6.55V140H250.54V127H258V81.4h-7.41Zm23.08,13v19.21h6.46c3.59,0,6.43-.76,8.54-2.27s3.16-3.9,3.16-7.17a9,9,0,0,0-3-7.17q-3-2.59-8.73-2.6Z" style="fill:#fff"/><path d="M327.74,118.59l.14,1.46a9.84,9.84,0,0,0,1.77,3.73,11.8,11.8,0,0,0,3,2.69,13.45,13.45,0,0,0,3.77,1.63,16.69,16.69,0,0,0,4.2.54,30.6,30.6,0,0,0,4-.26,33.17,33.17,0,0,0,3.7-.71c1.2-.3,2.36-.64,3.49-1s2.28-.81,3.45-1.25l5.19,9.68c-1.79,1.1-3.44,2-4.93,2.8a30.59,30.59,0,0,1-4.51,1.91,25.79,25.79,0,0,1-4.81,1.11,43.07,43.07,0,0,1-5.95.36,28.78,28.78,0,0,1-11.32-2.1,23.77,23.77,0,0,1-13.47-14.09,29.27,29.27,0,0,1-1.77-10.19,27.3,27.3,0,0,1,1.86-10.1A24.51,24.51,0,0,1,328.92,91a26.28,26.28,0,0,1,10.47-2,25.62,25.62,0,0,1,10.22,1.92,21.43,21.43,0,0,1,7.53,5.28,23.62,23.62,0,0,1,4.71,7.93,30.87,30.87,0,0,1,1.8,9.79,23.19,23.19,0,0,1,.16,2.33c0,.78,0,1.57-.07,2.39ZM339,100.75a13.84,13.84,0,0,0-4.51.64,9.41,9.41,0,0,0-3.14,1.74,8.92,8.92,0,0,0-2,2.53,14.71,14.71,0,0,0-1.18,3H348.6a15.42,15.42,0,0,0-1-3,7.92,7.92,0,0,0-1.7-2.5,7.64,7.64,0,0,0-2.76-1.72A11.68,11.68,0,0,0,339,100.75Z" style="fill:#fff"/><path d="M415.37,108.87H402.11v-5.05a21.46,21.46,0,0,0-3.54.26,9.37,9.37,0,0,0-2.81.87,5.94,5.94,0,0,0-2,1.7,6.55,6.55,0,0,0-1.16,2.69V127h10V140h-31.9V127H378V104h-7.22V91.08h21.75v3.44A15.67,15.67,0,0,1,397.15,92a17.45,17.45,0,0,1,5.66-.89q3.12,0,6.42,0c2.2,0,4.25,0,6.14,0Z" style="fill:#fff"/><path d="M441.84,91.08h9.77v12.36h-9.87l-.09,20.67a12.07,12.07,0,0,0,.28,2.9,4.56,4.56,0,0,0,.83,1.77,2.72,2.72,0,0,0,1.29.9,6.18,6.18,0,0,0,1.75.23,12.93,12.93,0,0,0,3.16-.35c.92-.24,1.83-.51,2.74-.83l2,9.11a22.16,22.16,0,0,1-5.36,2.41,24.47,24.47,0,0,1-7,.89,15.4,15.4,0,0,1-5.5-1,12.75,12.75,0,0,1-4.6-3,14.59,14.59,0,0,1-3.16-5,18.59,18.59,0,0,1-1.14-7l.15-21.66h-7V91.08h7.08l.1-11.7,14.67-7Z" style="fill:#fff"/><path d="M491.19,137.32c-1.1.69-2.1,1.28-3,1.77a16.46,16.46,0,0,1-5.56,1.84,22.77,22.77,0,0,1-3.21.21,23.94,23.94,0,0,1-7.86-1.2,17.3,17.3,0,0,1-5.85-3.3,14.27,14.27,0,0,1-3.66-5,15.79,15.79,0,0,1,0-12.48,13.59,13.59,0,0,1,3.75-4.93,17.76,17.76,0,0,1,6-3.21A26.39,26.39,0,0,1,480,109.9a47.4,47.4,0,0,1,6.11.36c1.85.23,3.55.53,5.12.87v-1.51a6.75,6.75,0,0,0-.7-3.18,6.15,6.15,0,0,0-2-2.22,8.77,8.77,0,0,0-3.06-1.28,18.45,18.45,0,0,0-3.92-.4,31.4,31.4,0,0,0-7.81.88,29.68,29.68,0,0,0-6.49,2.52l-4.53-9.15a40,40,0,0,1,10.08-5.05A35.06,35.06,0,0,1,483.93,90a33.39,33.39,0,0,1,8.47,1,17,17,0,0,1,6.67,3.3,15.56,15.56,0,0,1,4.37,6,22.73,22.73,0,0,1,1.58,9V127h6.56V140H491.19ZM480.44,130a16.21,16.21,0,0,0,6.08-1.09,17.69,17.69,0,0,0,4.67-2.64v-6.23H479.87a7,7,0,0,0-2.12.33,6.44,6.44,0,0,0-1.87.94,4.77,4.77,0,0,0-1.32,1.51,4.24,4.24,0,0,0-.49,2.08,4.71,4.71,0,0,0,1.58,3.63A6.82,6.82,0,0,0,480.44,130Z" style="fill:#fff"/><path d="M542.77,91.08h8.92v12.36h-8.92V127h9V140H521.44V127h7.31V103.44h-7.4V91.08h7.4V83a17.73,17.73,0,0,1,1.52-7.55,16.26,16.26,0,0,1,4-5.47,17,17,0,0,1,5.83-3.35,21.07,21.07,0,0,1,6.93-1.13,25.93,25.93,0,0,1,4.82.4,20.92,20.92,0,0,1,3.72,1,15.35,15.35,0,0,1,2.72,1.32,12.3,12.3,0,0,1,1.77,1.32l-5.43,10a9,9,0,0,0-2.45-1.27,10.23,10.23,0,0,0-3.35-.48,6.72,6.72,0,0,0-2.39.43,5.49,5.49,0,0,0-1.93,1.23,5.64,5.64,0,0,0-1.3,2,7.77,7.77,0,0,0-.47,2.81Z" style="fill:#fff"/><path d="M559,66.54h22V127h7.55V140H559V127h7.55V79.47H559Z" style="fill:#fff"/><path d="M596.42,115.33a25.87,25.87,0,0,1,1.94-10,25.2,25.2,0,0,1,5.38-8.17A25.46,25.46,0,0,1,612,91.64a28.09,28.09,0,0,1,21,0,25.6,25.6,0,0,1,8.24,5.52,25,25,0,0,1,5.35,8.17,26,26,0,0,1,1.91,10,27,27,0,0,1-1.86,10,24.46,24.46,0,0,1-13.5,13.75,29,29,0,0,1-21.33,0,24.31,24.31,0,0,1-13.44-13.7A26.92,26.92,0,0,1,596.42,115.33Zm14.11,0a13.52,13.52,0,0,0,.94,5.12,12.59,12.59,0,0,0,2.58,4,11.68,11.68,0,0,0,3.77,2.64,11.3,11.3,0,0,0,4.6.94,11.56,11.56,0,0,0,4.65-.92,10.84,10.84,0,0,0,3.73-2.62,12.37,12.37,0,0,0,2.48-4,14.5,14.5,0,0,0,.89-5.17,14.92,14.92,0,0,0-.89-5.28,11.78,11.78,0,0,0-2.48-4,10.73,10.73,0,0,0-3.73-2.53,11.51,11.51,0,0,0-4.65-.82,11.39,11.39,0,0,0-4.6.82,11.08,11.08,0,0,0-3.77,2.53,11.84,11.84,0,0,0-2.58,4A14.07,14.07,0,0,0,610.53,115.33Z" style="fill:#fff"/><path d="M691.5,88.58a7.88,7.88,0,0,0-1.15-3.12A9.41,9.41,0,0,0,688,82.94a11.92,11.92,0,0,0-7.06-2.29,14.32,14.32,0,0,0-3.35.38,8.31,8.31,0,0,0-2.71,1.15,5.65,5.65,0,0,0-2.52,4.93,5.55,5.55,0,0,0,.92,3.38,7.23,7.23,0,0,0,2.36,2.05,13.46,13.46,0,0,0,3.18,1.27c1.16.32,2.3.67,3.4,1l13,4.34a20.65,20.65,0,0,1,5.05,2.6,17.3,17.3,0,0,1,4.09,4,19.18,19.18,0,0,1,2.71,5.43,22.34,22.34,0,0,1,1,6.89,23.1,23.1,0,0,1-1.91,9.48,21.38,21.38,0,0,1-5.36,7.36,24.4,24.4,0,0,1-8.25,4.77,33.85,33.85,0,0,1-18.43.78,26.21,26.21,0,0,1-6.68-2.67,22.65,22.65,0,0,1-5.28-4.18,18.33,18.33,0,0,1-3.54-5.49h-4.86V114h17.08v2.93a11.09,11.09,0,0,0,.68,3.92,8.47,8.47,0,0,0,2.06,3.11,9.38,9.38,0,0,0,3.44,2,14.53,14.53,0,0,0,4.86.73c2.83,0,5-.65,6.46-2a6.9,6.9,0,0,0,2.22-5.45,5.4,5.4,0,0,0-.78-3,7,7,0,0,0-2-2,13.28,13.28,0,0,0-2.74-1.39c-1-.38-2-.73-3-1l-10.81-3.49a27.36,27.36,0,0,1-5.92-2.64,20.72,20.72,0,0,1-5-4.25,20,20,0,0,1-3.49-6,21.79,21.79,0,0,1-1.3-7.81,20.94,20.94,0,0,1,1.89-9.08,18.93,18.93,0,0,1,5.29-6.73,23.59,23.59,0,0,1,8.06-4.15,35.35,35.35,0,0,1,10.24-1.42,30.71,30.71,0,0,1,8.12,1A28.37,28.37,0,0,1,695.73,70a21.34,21.34,0,0,1,5,3.9,17.38,17.38,0,0,1,3.14,4.55h4.72V92.73H691.5Z" style="fill:#fff"/><path d="M715.85,68.43h30.63V81.36h-7.55V127h7.55V140H715.85V127h7.41V81.36h-7.41Z" style="fill:#fff"/><path d="M754.07,127h6.66V81.4h-6.66v-13h29.45l21.09,51.62,19.58-51.62h29.87v13h-6.65V127H854V140H827.21V127h4.91V85.89L810.7,139.11H797.44L775.64,87.3V127H781V140h-26.9Z" style="fill:#fff"/><path d="M106.61,14a96,96,0,1,0,96,96A96.11,96.11,0,0,0,106.61,14Zm47.11,24.83a5.35,5.35,0,1,1-5.35,5.35A5.35,5.35,0,0,1,153.72,38.83ZM101.26,23.59a5.35,5.35,0,1,1-5.35,5.34A5.35,5.35,0,0,1,101.26,23.59ZM33.94,150.67a5.35,5.35,0,1,1,5.34-5.35A5.34,5.34,0,0,1,33.94,150.67ZM66.4,186a5.35,5.35,0,1,1,5.35-5.34A5.35,5.35,0,0,1,66.4,186Zm47.12,10.44a5.35,5.35,0,1,1,5.35-5.34A5.34,5.34,0,0,1,113.52,196.41Zm-6.91-21.13A65.28,65.28,0,1,1,171.89,110,65.35,65.35,0,0,1,106.61,175.28ZM182.72,87a5.35,5.35,0,1,1,5.34-5.35A5.35,5.35,0,0,1,182.72,87Z" style="fill:#fff"/><path d="M130.13,98.1a3.51,3.51,0,0,0-5,0L113,110.28l-5,5-3.28,3.29a1.42,1.42,0,0,1-2,0L97.2,113h0l-6.25-6.25h0A3.5,3.5,0,0,0,86,111.69h0l7.69,7.69h0l4.1,4.1a8.44,8.44,0,0,0,11.93,0L113,120.2l5-5,12.18-12.18A3.51,3.51,0,0,0,130.13,98.1Z" style="fill:#fff"/><g style="clip-path:url(#clip-path)"><polygon points="95.21 160.47 233.63 240.39 233.63 80.56 95.21 160.47" style="fill:#ccc"/><polygon points="-14.91 148.76 119.76 62.67 -22.13 -10.91 -14.91 148.76" style="fill:#ccc"/></g><path d="M106.61,175.28A65.28,65.28,0,1,1,171.89,110,65.35,65.35,0,0,1,106.61,175.28Zm0-109.67A44.39,44.39,0,1,0,151,110,44.44,44.44,0,0,0,106.61,65.61Z" style="fill:#fff"/></svg>