<svg xmlns="http://www.w3.org/2000/svg" xmlns:xlink="http://www.w3.org/1999/xlink" viewBox="0 0 888.96 265.81">
  <defs>
    <clipPath id="clip-path">
      <path d="M136.17,229.43A101.54,101.54,0,1,1,237.71,127.89,101.66,101.66,0,0,1,136.17,229.43Zm0-170.59a69.05,69.05,0,1,0,69,69.05A69.12,69.12,0,0,0,136.17,58.84Z" style="fill: none"/>
    </clipPath>
  </defs>
  <title>Logo Pertaflosim_panjang-2_g</title>
  <g id="Layer_2" data-name="Layer 2">
    <g id="Layer_1-2" data-name="Layer 1">
      <text transform="translate(274.77 157.85)" style="font-size: 96.63893127441406px;fill: #999;font-family: Arvo-Bold, Arvo;font-weight: 700">PertafloSIM</text>
      <g>
        <path d="M136.17,26.35A101.54,101.54,0,1,0,237.71,127.89,101.66,101.66,0,0,0,136.17,26.35ZM186,52.61a5.66,5.66,0,1,1-5.66,5.65A5.65,5.65,0,0,1,186,52.61ZM130.51,36.49a5.66,5.66,0,1,1-5.65,5.65A5.66,5.66,0,0,1,130.51,36.49ZM59.3,170.9A5.66,5.66,0,1,1,65,165.25,5.65,5.65,0,0,1,59.3,170.9Zm34.34,37.35a5.66,5.66,0,1,1,5.65-5.66A5.67,5.67,0,0,1,93.64,208.25Zm49.84,11a5.66,5.66,0,1,1,5.66-5.66A5.65,5.65,0,0,1,143.48,219.29Zm-7.31-22.35a69.05,69.05,0,1,1,69-69A69.13,69.13,0,0,1,136.17,196.94Zm80.5-93.41a5.66,5.66,0,1,1,5.65-5.66A5.67,5.67,0,0,1,216.67,103.53Z" style="fill: #ccc"/>
        <path d="M161.05,115.3a3.71,3.71,0,0,0-5.25,0l-12.89,12.88-5.24,5.25-3.48,3.48a1.51,1.51,0,0,1-2.12,0l-5.86-5.86h0l-6.61-6.61h0a3.71,3.71,0,0,0-5.22,5.22l0,0,8.13,8.13h0l4.34,4.34a9,9,0,0,0,12.62,0l3.47-3.48,5.25-5.25,12.89-12.88A3.71,3.71,0,0,0,161.05,115.3Z" style="fill: #ccc"/>
        <g style="clip-path: url(#clip-path)">
          <polygon points="124.12 181.28 270.52 265.81 270.52 96.75 124.12 181.28" style="fill: #999"/>
          <polygon points="7.64 168.88 150.08 77.83 0 0 7.64 168.88" style="fill: #999"/>
        </g>
        <path d="M136.17,196.94a69.05,69.05,0,1,1,69-69A69.13,69.13,0,0,1,136.17,196.94Zm0-116a47,47,0,1,0,47,47A47,47,0,0,0,136.17,80.93Z" style="fill: #ccc"/>
      </g>
    </g>
  </g>
</svg>
