<svg id="Layer_1" data-name="Layer 1" xmlns="http://www.w3.org/2000/svg" xmlns:xlink="http://www.w3.org/1999/xlink" width="470" height="625" viewBox="0 0 470 625"><defs><clipPath id="clip-path"><path d="M235,462.28C110.34,462.28,8.93,360.87,8.93,236.21S110.34,10.14,235,10.14,461.07,111.56,461.07,236.21,359.66,462.28,235,462.28Zm0-379.79c-84.77,0-153.73,69-153.73,153.72s69,153.73,153.73,153.73,153.73-69,153.73-153.73S319.77,82.49,235,82.49Z" style="fill:none"/></clipPath></defs><title>Logo Pertaflosim_kotak-2_w</title><path d="M11.61,544H36.06a21.37,21.37,0,0,1,7.51,1.28,18.75,18.75,0,0,1,5.9,3.44,15.89,15.89,0,0,1,3.88,5,13.23,13.23,0,0,1,1.4,5.91,21.42,21.42,0,0,1-1.1,6.93,14.85,14.85,0,0,1-3.41,5.61,16.29,16.29,0,0,1-5.83,3.75,22.93,22.93,0,0,1-8.35,1.38H28.69v10.1h4.85V597H11.61V587.4h5.48V553.62H11.61Zm17.08,9.61v14.22h4.78a10.65,10.65,0,0,0,6.33-1.68,6.09,6.09,0,0,0,2.34-5.31,6.7,6.7,0,0,0-2.2-5.31q-2.2-1.92-6.47-1.92Z" style="fill:#fff"/><path d="M68.76,581.15l.1,1.08A7.2,7.2,0,0,0,70.17,585a9,9,0,0,0,2.18,2,9.65,9.65,0,0,0,2.8,1.21,12.57,12.57,0,0,0,3.11.4,21.7,21.7,0,0,0,3-.2,23.88,23.88,0,0,0,2.75-.52c.88-.22,1.74-.48,2.58-.77s1.69-.6,2.55-.92L93,593.34c-1.32.81-2.54,1.51-3.65,2.08A22.74,22.74,0,0,1,86,596.83a19.8,19.8,0,0,1-3.57.82,31.46,31.46,0,0,1-4.4.26,21.23,21.23,0,0,1-8.38-1.55,17.55,17.55,0,0,1-10-10.43,21.51,21.51,0,0,1-1.31-7.54,20.17,20.17,0,0,1,1.38-7.48,18.06,18.06,0,0,1,9.9-10.2,19.44,19.44,0,0,1,7.75-1.5A19.14,19.14,0,0,1,85,560.62a16,16,0,0,1,5.57,3.92A17.43,17.43,0,0,1,94,570.4a22.86,22.86,0,0,1,1.33,7.25,17,17,0,0,1,.12,1.73c0,.57,0,1.16,0,1.77Zm8.34-13.21a10.48,10.48,0,0,0-3.33.47,6.84,6.84,0,0,0-2.32,1.3,6.68,6.68,0,0,0-1.51,1.86,11,11,0,0,0-.87,2.2H84.2a12.09,12.09,0,0,0-.7-2.23,6.07,6.07,0,0,0-1.26-1.85,5.82,5.82,0,0,0-2-1.28A8.91,8.91,0,0,0,77.1,567.94Z" style="fill:#fff"/><path d="M133.63,574h-9.82v-3.74a17.42,17.42,0,0,0-2.62.19,7.16,7.16,0,0,0-2.08.65,4.33,4.33,0,0,0-1.5,1.26,4.89,4.89,0,0,0-.86,2v13.1h7.37V597H100.51V587.4h5.41v-17h-5.34v-9.57h16.1v2.55a12,12,0,0,1,3.46-1.89,12.83,12.83,0,0,1,4.19-.66l4.75,0c1.63,0,3.15,0,4.55,0Z" style="fill:#fff"/><path d="M153.22,560.78h7.23v9.15h-7.3l-.07,15.3a8.94,8.94,0,0,0,.21,2.15,3.4,3.4,0,0,0,.61,1.31,1.94,1.94,0,0,0,1,.66,4.3,4.3,0,0,0,1.3.18,9.68,9.68,0,0,0,2.34-.26c.67-.18,1.35-.38,2-.61L162,595.4a16.49,16.49,0,0,1-4,1.78,18,18,0,0,1-5.19.66,11.41,11.41,0,0,1-4.07-.73,9.46,9.46,0,0,1-3.4-2.22,10.74,10.74,0,0,1-2.34-3.72,13.49,13.49,0,0,1-.84-5.2l.1-16h-5.2v-9.15h5.24l.07-8.66L153.29,547Z" style="fill:#fff"/><path d="M189.76,595c-.81.52-1.56,1-2.23,1.31a11.88,11.88,0,0,1-2,.88,13.1,13.1,0,0,1-2.1.49,17.29,17.29,0,0,1-2.37.15,17.52,17.52,0,0,1-5.82-.89,12.9,12.9,0,0,1-4.33-2.44,10.6,10.6,0,0,1-2.71-3.67,11.71,11.71,0,0,1,0-9.24A10.13,10.13,0,0,1,171,578a13.39,13.39,0,0,1,4.45-2.38,19.56,19.56,0,0,1,6-.85A36.62,36.62,0,0,1,186,575c1.36.17,2.63.39,3.79.65v-1.12a5,5,0,0,0-.52-2.36,4.53,4.53,0,0,0-1.47-1.64,6.31,6.31,0,0,0-2.27-.94,13.18,13.18,0,0,0-2.9-.3,23.21,23.21,0,0,0-5.78.64,22.44,22.44,0,0,0-4.8,1.87L168.66,565a29.64,29.64,0,0,1,7.46-3.74,26.12,26.12,0,0,1,8.26-1.29,24.83,24.83,0,0,1,6.27.75,12.77,12.77,0,0,1,4.95,2.44,11.46,11.46,0,0,1,3.23,4.42,16.82,16.82,0,0,1,1.17,6.64V587.4h4.85V597H189.76Zm-8-5.41a12.22,12.22,0,0,0,4.5-.8,13.32,13.32,0,0,0,3.46-2v-4.61h-8.38a5.2,5.2,0,0,0-1.57.24,4.72,4.72,0,0,0-1.38.7,3.5,3.5,0,0,0-1,1.12,3.05,3.05,0,0,0-.37,1.54,3.52,3.52,0,0,0,1.17,2.69A5.08,5.08,0,0,0,181.8,589.6Z" style="fill:#fff"/><path d="M227.94,560.78h6.61v9.15h-6.61V587.4h6.68V597H212.15V587.4h5.42V569.93h-5.49v-9.15h5.49v-6a13.1,13.1,0,0,1,1.12-5.59,12.18,12.18,0,0,1,3-4,12.87,12.87,0,0,1,4.32-2.48,15.68,15.68,0,0,1,5.13-.84,19.19,19.19,0,0,1,3.57.3,17.08,17.08,0,0,1,2.76.75,10.65,10.65,0,0,1,2,1,8.38,8.38,0,0,1,1.31,1l-4,7.37a7,7,0,0,0-1.82-1,7.76,7.76,0,0,0-2.48-.35,4.83,4.83,0,0,0-1.76.32,4.15,4.15,0,0,0-1.44.91,4.31,4.31,0,0,0-1,1.48,5.73,5.73,0,0,0-.35,2.08Z" style="fill:#fff"/><path d="M240,542.61h16.31V587.4h5.59V597H240V587.4h5.59V552.19H240Z" style="fill:#fff"/><path d="M267.66,578.74a19.26,19.26,0,0,1,1.43-7.41,18.59,18.59,0,0,1,10.06-10.13,20.85,20.85,0,0,1,15.53,0,18.54,18.54,0,0,1,6.1,4.09,18.31,18.31,0,0,1,4,6,19.25,19.25,0,0,1,1.42,7.41,19.93,19.93,0,0,1-1.38,7.42,18.06,18.06,0,0,1-10,10.18,21.53,21.53,0,0,1-15.79,0,18,18,0,0,1-10-10.15A20,20,0,0,1,267.66,578.74Zm10.45,0a10,10,0,0,0,.7,3.79,9.27,9.27,0,0,0,1.9,3,8.65,8.65,0,0,0,2.79,2,8.33,8.33,0,0,0,3.41.7,8.73,8.73,0,0,0,3.44-.68,8.13,8.13,0,0,0,2.76-1.94,9.15,9.15,0,0,0,1.83-3,10.43,10.43,0,0,0,.67-3.82,10.82,10.82,0,0,0-.67-3.92,8.75,8.75,0,0,0-1.83-3,8.08,8.08,0,0,0-2.76-1.87,9.92,9.92,0,0,0-6.85,0,8.4,8.4,0,0,0-2.79,1.87,8.91,8.91,0,0,0-1.9,3A10.41,10.41,0,0,0,278.11,578.74Z" style="fill:#fff"/><path d="M338.05,558.93a5.7,5.7,0,0,0-.86-2.31,6.86,6.86,0,0,0-1.74-1.87,9,9,0,0,0-2.41-1.24,8.84,8.84,0,0,0-2.81-.45,10.29,10.29,0,0,0-2.48.28,6.32,6.32,0,0,0-2,.85,4.35,4.35,0,0,0-1.37,1.49,4.49,4.49,0,0,0-.5,2.17,4.13,4.13,0,0,0,.68,2.49,5.27,5.27,0,0,0,1.75,1.52,10.5,10.5,0,0,0,2.35.95c.87.23,1.7.49,2.52.76l9.6,3.22a15.22,15.22,0,0,1,3.74,1.92,12.53,12.53,0,0,1,3,3,14,14,0,0,1,2,4,16.48,16.48,0,0,1,.74,5.1,17,17,0,0,1-1.42,7,15.82,15.82,0,0,1-4,5.45,18.24,18.24,0,0,1-6.12,3.53,23.74,23.74,0,0,1-7.89,1.25,23.23,23.23,0,0,1-5.75-.68,19.11,19.11,0,0,1-4.94-2,16.78,16.78,0,0,1-3.91-3.09,13.58,13.58,0,0,1-2.62-4.07h-3.6V577.72h12.65v2.17a8,8,0,0,0,.5,2.9,6.38,6.38,0,0,0,1.52,2.3,6.88,6.88,0,0,0,2.55,1.52,10.91,10.91,0,0,0,3.6.54,7,7,0,0,0,4.79-1.45,5.1,5.1,0,0,0,1.64-4,4,4,0,0,0-.58-2.22,5.28,5.28,0,0,0-1.48-1.5,9.66,9.66,0,0,0-2-1c-.75-.28-1.48-.54-2.2-.77l-8-2.59a19.62,19.62,0,0,1-4.38-1.95,15.21,15.21,0,0,1-3.74-3.14,14.88,14.88,0,0,1-2.59-4.42,16.25,16.25,0,0,1-1-5.78,15.57,15.57,0,0,1,1.4-6.73,14,14,0,0,1,3.91-5,17.54,17.54,0,0,1,6-3.07,26,26,0,0,1,7.58-1,22.82,22.82,0,0,1,6,.75,20.84,20.84,0,0,1,4.95,2,16,16,0,0,1,3.7,2.88,12.72,12.72,0,0,1,2.32,3.37h3.5V562H338.05Z" style="fill:#fff"/><path d="M356.08,544h22.67v9.57h-5.59V587.4h5.59V597H356.08V587.4h5.48V553.58h-5.48Z" style="fill:#fff"/><path d="M384.37,587.4h4.93V553.62h-4.93V544h21.8l15.61,38.22L436.28,544h22.11v9.61h-4.92V587.4h4.85V597h-19.8V587.4h3.63V556.94l-15.86,39.4h-9.81L400.34,558V587.4h3.94V597H384.37Z" style="fill:#fff"/><path d="M235,10.14C110.34,10.14,8.93,111.56,8.93,236.21S110.34,462.28,235,462.28,461.07,360.87,461.07,236.21,359.66,10.14,235,10.14ZM346,68.61A12.59,12.59,0,1,1,333.36,81.2,12.59,12.59,0,0,1,346,68.61ZM222.41,32.72a12.59,12.59,0,1,1-12.59,12.59A12.59,12.59,0,0,1,222.41,32.72ZM63.87,332a12.6,12.6,0,1,1,12.59-12.6A12.6,12.6,0,0,1,63.87,332Zm76.45,83.13a12.59,12.59,0,1,1,12.59-12.59A12.59,12.59,0,0,1,140.32,415.12Zm111,24.59a12.59,12.59,0,1,1,12.59-12.59A12.59,12.59,0,0,1,251.29,439.71ZM235,389.94c-84.77,0-153.73-69-153.73-153.73S150.23,82.49,235,82.49s153.73,69,153.73,153.72S319.77,389.94,235,389.94ZM414.23,182a12.6,12.6,0,1,1,12.59-12.59A12.59,12.59,0,0,1,414.23,182Z" style="fill:#fff"/><path d="M290.4,208.19a8.26,8.26,0,0,0-11.69,0L250,236.87l-11.68,11.69-7.74,7.73a3.33,3.33,0,0,1-4.71,0l-13-13h0l-14.71-14.71,0,0a8.25,8.25,0,0,0-11.62,11.62l0,0,18.1,18.1h0L214.2,268a19.89,19.89,0,0,0,28.09,0l7.73-7.74,11.69-11.68,28.69-28.69A8.27,8.27,0,0,0,290.4,208.19Z" style="fill:#fff"/><g style="clip-path:url(#clip-path)"><polygon points="208.17 355.08 534.13 543.27 534.13 166.89 208.17 355.08" style="fill:#ccc"/><polygon points="-51.15 327.49 265.97 124.76 -68.16 -48.51 -51.15 327.49" style="fill:#ccc"/></g><path d="M235,389.94c-84.77,0-153.73-69-153.73-153.73S150.23,82.49,235,82.49s153.73,69,153.73,153.72S319.77,389.94,235,389.94Zm0-258.26A104.54,104.54,0,1,0,339.53,236.21,104.65,104.65,0,0,0,235,131.68Z" style="fill:#fff"/></svg>