<svg id="Layer_1" data-name="Layer 1" xmlns="http://www.w3.org/2000/svg" xmlns:xlink="http://www.w3.org/1999/xlink" width="870" height="220" viewBox="0 0 870 220"><defs><clipPath id="clip-path"><path d="M109.38,211.54A101.54,101.54,0,1,1,210.92,110,101.66,101.66,0,0,1,109.38,211.54Zm0-170.59a69.05,69.05,0,1,0,69,69.05A69.13,69.13,0,0,0,109.38,41Z" style="fill:none"/></clipPath></defs><title>Logo Pertaflosim_panjang-2_g</title><path d="M253.31,68.43h33a28.79,28.79,0,0,1,10.15,1.72,25.55,25.55,0,0,1,8,4.65,21.52,21.52,0,0,1,5.24,6.75,17.72,17.72,0,0,1,1.89,8,28.89,28.89,0,0,1-1.49,9.37,19.89,19.89,0,0,1-4.6,7.57,21.79,21.79,0,0,1-7.88,5.07,30.74,30.74,0,0,1-11.28,1.87h-9.95V127H283V140H253.31V127h7.41V81.41h-7.41Zm23.08,13v19.2h6.46q5.38,0,8.54-2.27t3.16-7.17a9,9,0,0,0-3-7.17q-3-2.59-8.73-2.59Z" style="fill:#999"/><path d="M330.51,118.59l.14,1.46a9.84,9.84,0,0,0,1.77,3.73,11.79,11.79,0,0,0,2.95,2.69,13.11,13.11,0,0,0,3.78,1.63,16.57,16.57,0,0,0,4.2.54,30.44,30.44,0,0,0,4-.26,33.17,33.17,0,0,0,3.7-.71c1.2-.3,2.36-.64,3.5-1s2.28-.81,3.44-1.25l5.19,9.68c-1.79,1.1-3.44,2-4.93,2.8a31.3,31.3,0,0,1-4.51,1.92,26.61,26.61,0,0,1-4.81,1.1,43,43,0,0,1-5.94.36,28.8,28.8,0,0,1-11.33-2.1,23.77,23.77,0,0,1-13.47-14.09,29.27,29.27,0,0,1-1.77-10.19,27.3,27.3,0,0,1,1.86-10.1A24.51,24.51,0,0,1,331.69,91a26.33,26.33,0,0,1,10.48-2,25.61,25.61,0,0,1,10.21,1.91,21.34,21.34,0,0,1,7.53,5.28,23.65,23.65,0,0,1,4.72,7.93,30.87,30.87,0,0,1,1.79,9.79c.09.79.15,1.56.17,2.34s0,1.56-.08,2.38Zm11.28-17.84a13.88,13.88,0,0,0-4.51.64,9.41,9.41,0,0,0-3.14,1.74,8.71,8.71,0,0,0-2,2.53,13.63,13.63,0,0,0-1.18,3h20.43a15.42,15.42,0,0,0-.95-3,7.92,7.92,0,0,0-1.7-2.5,7.64,7.64,0,0,0-2.76-1.72A11.64,11.64,0,0,0,341.79,100.75Z" style="fill:#999"/><path d="M418.14,108.87H404.88v-5.05a22.61,22.61,0,0,0-3.54.26,9.37,9.37,0,0,0-2.81.87,5.94,5.94,0,0,0-2,1.7,6.54,6.54,0,0,0-1.15,2.69V127h9.95V140H373.4V127h7.32V104H373.5V91.08h21.75v3.44A15.67,15.67,0,0,1,399.92,92a17.46,17.46,0,0,1,5.67-.89c2.07,0,4.21,0,6.41,0s4.25,0,6.14,0Z" style="fill:#999"/><path d="M444.61,91.08h9.77v12.36h-9.86l-.1,20.67a12.61,12.61,0,0,0,.28,2.9,4.56,4.56,0,0,0,.83,1.77,2.7,2.7,0,0,0,1.3.9,6.06,6.06,0,0,0,1.74.23,12.93,12.93,0,0,0,3.16-.35c.92-.24,1.83-.51,2.74-.83l2,9.11a22,22,0,0,1-5.36,2.41,24.47,24.47,0,0,1-7,.89,15.44,15.44,0,0,1-5.5-1,12.75,12.75,0,0,1-4.6-3,14.59,14.59,0,0,1-3.16-5,18.4,18.4,0,0,1-1.13-7l.14-21.66h-7V91.08h7.07l.1-11.7,14.67-7Z" style="fill:#999"/><path d="M494,137.32c-1.1.69-2.11,1.28-3,1.77a17.42,17.42,0,0,1-2.74,1.18,16.64,16.64,0,0,1-2.83.66,22.77,22.77,0,0,1-3.21.21,24,24,0,0,1-7.86-1.2,17.3,17.3,0,0,1-5.85-3.3,14.27,14.27,0,0,1-3.66-5,15.18,15.18,0,0,1-1.27-6.2,15,15,0,0,1,1.3-6.28,13.59,13.59,0,0,1,3.75-4.93,17.72,17.72,0,0,1,6-3.21,26.32,26.32,0,0,1,8.14-1.15,47.62,47.62,0,0,1,6.11.35c1.84.24,3.54.53,5.12.87v-1.51a6.75,6.75,0,0,0-.71-3.18,6,6,0,0,0-2-2.22,8.71,8.71,0,0,0-3.07-1.27,17.8,17.8,0,0,0-3.92-.41,31.46,31.46,0,0,0-7.81.88,29.41,29.41,0,0,0-6.48,2.52l-4.54-9.15a40,40,0,0,1,10.08-5.05A35.34,35.34,0,0,1,486.7,90a33.39,33.39,0,0,1,8.47,1,17.17,17.17,0,0,1,6.68,3.3,15.54,15.54,0,0,1,4.36,6,22.57,22.57,0,0,1,1.58,9V127h6.56V140H494ZM483.21,130a16.21,16.21,0,0,0,6.08-1.09,17.76,17.76,0,0,0,4.68-2.64v-6.23H482.64a7,7,0,0,0-2.12.33,6.47,6.47,0,0,0-1.87,1,4.63,4.63,0,0,0-1.32,1.5,4.26,4.26,0,0,0-.49,2.08,4.71,4.71,0,0,0,1.58,3.63A6.82,6.82,0,0,0,483.21,130Z" style="fill:#999"/><path d="M545.54,91.08h8.92v12.36h-8.92V127h9V140H524.21V127h7.32V103.44h-7.41V91.08h7.41V83A17.73,17.73,0,0,1,533,75.41a16.26,16.26,0,0,1,4-5.47,17.06,17.06,0,0,1,5.83-3.35,21.08,21.08,0,0,1,6.94-1.13,25.89,25.89,0,0,1,4.81.4,21.28,21.28,0,0,1,3.73,1,15.23,15.23,0,0,1,2.71,1.32,13.09,13.09,0,0,1,1.77,1.32l-5.43,10A9,9,0,0,0,555,78.2a10.19,10.19,0,0,0-3.35-.48,6.62,6.62,0,0,0-2.38.43,5.53,5.53,0,0,0-1.94,1.23,5.64,5.64,0,0,0-1.3,2,7.77,7.77,0,0,0-.47,2.81Z" style="fill:#999"/><path d="M561.78,66.54h22V127h7.55V140H561.78V127h7.54V79.47h-7.54Z" style="fill:#999"/><path d="M599.19,115.33a25.87,25.87,0,0,1,1.94-10,25,25,0,0,1,5.38-8.16,25.33,25.33,0,0,1,8.21-5.53,28.22,28.22,0,0,1,21,0,25.46,25.46,0,0,1,8.24,5.53,24.81,24.81,0,0,1,5.35,8.16,26,26,0,0,1,1.91,10,27,27,0,0,1-1.86,10,24.46,24.46,0,0,1-13.5,13.75,29,29,0,0,1-21.32,0,24.29,24.29,0,0,1-13.45-13.7A26.92,26.92,0,0,1,599.19,115.33Zm14.11,0a13.53,13.53,0,0,0,1,5.12,12.57,12.57,0,0,0,2.57,4,11.68,11.68,0,0,0,3.77,2.64,11.3,11.3,0,0,0,4.6.94,11.56,11.56,0,0,0,4.65-.92,10.74,10.74,0,0,0,3.73-2.62,12.37,12.37,0,0,0,2.48-4,14.5,14.5,0,0,0,.89-5.17,14.92,14.92,0,0,0-.89-5.28,11.78,11.78,0,0,0-2.48-4,10.64,10.64,0,0,0-3.73-2.53,11.68,11.68,0,0,0-4.65-.82,11.57,11.57,0,0,0-4.6.82,11.08,11.08,0,0,0-3.77,2.53,11.81,11.81,0,0,0-2.57,4A14.07,14.07,0,0,0,613.3,115.33Z" style="fill:#999"/><path d="M694.28,88.58a8.05,8.05,0,0,0-1.16-3.12,9.25,9.25,0,0,0-2.36-2.52,11.83,11.83,0,0,0-3.26-1.68,11.71,11.71,0,0,0-3.79-.61,14.2,14.2,0,0,0-3.35.38,8.27,8.27,0,0,0-2.72,1.15,5.82,5.82,0,0,0-1.84,2,6,6,0,0,0-.68,2.92,5.53,5.53,0,0,0,.92,3.38,7.23,7.23,0,0,0,2.36,2.05,14.1,14.1,0,0,0,3.18,1.28c1.17.31,2.3.66,3.4,1l13,4.34a21,21,0,0,1,5,2.6,17.44,17.44,0,0,1,4.08,4,19.18,19.18,0,0,1,2.71,5.43,22.34,22.34,0,0,1,1,6.89,23.1,23.1,0,0,1-1.91,9.48,21.36,21.36,0,0,1-5.35,7.36,24.54,24.54,0,0,1-8.26,4.77,33.85,33.85,0,0,1-18.43.78,26.36,26.36,0,0,1-6.68-2.67,22.39,22.39,0,0,1-5.28-4.18,18.33,18.33,0,0,1-3.54-5.49h-4.86V114h17.08v2.93a11.09,11.09,0,0,0,.68,3.92,8.47,8.47,0,0,0,2.06,3.11,9.25,9.25,0,0,0,3.44,2,14.62,14.62,0,0,0,4.86.73q4.24,0,6.47-2a6.94,6.94,0,0,0,2.22-5.45,5.4,5.4,0,0,0-.78-3,7.06,7.06,0,0,0-2-2,13.28,13.28,0,0,0-2.74-1.39c-1-.38-2-.72-3-1L674,108.35a27.43,27.43,0,0,1-5.93-2.64,20.72,20.72,0,0,1-5-4.25,20,20,0,0,1-3.49-6,22,22,0,0,1-1.3-7.81,20.94,20.94,0,0,1,1.89-9.08,18.93,18.93,0,0,1,5.29-6.73,23.54,23.54,0,0,1,8.07-4.15,35.25,35.25,0,0,1,10.24-1.42,30.63,30.63,0,0,1,8.11,1A28.37,28.37,0,0,1,698.5,70a21.61,21.61,0,0,1,5,3.9,17.38,17.38,0,0,1,3.14,4.55h4.72V92.73H694.28Z" style="fill:#999"/><path d="M718.62,68.43h30.63V81.36H741.7V127h7.55V140H718.62V127H726V81.36h-7.41Z" style="fill:#999"/><path d="M756.85,127h6.65V81.41h-6.65v-13h29.44l21.09,51.62L827,68.43h29.87v13h-6.65V127h6.56V140H830V127h4.91V85.89l-21.42,53.22H800.21L778.41,87.3V127h5.33V140H756.85Z" style="fill:#999"/><path d="M109.38,8.46A101.54,101.54,0,1,0,210.92,110,101.66,101.66,0,0,0,109.38,8.46Zm49.83,26.26a5.66,5.66,0,1,1-5.66,5.66A5.65,5.65,0,0,1,159.21,34.72ZM103.72,18.6a5.66,5.66,0,1,1-5.65,5.65A5.66,5.66,0,0,1,103.72,18.6ZM32.51,153a5.66,5.66,0,1,1,5.66-5.66A5.65,5.65,0,0,1,32.51,153Zm34.34,37.34a5.66,5.66,0,1,1,5.65-5.66A5.65,5.65,0,0,1,66.85,190.36Zm49.84,11a5.66,5.66,0,1,1,5.66-5.65A5.65,5.65,0,0,1,116.69,201.4Zm-7.31-22.35a69.05,69.05,0,1,1,69-69.05A69.13,69.13,0,0,1,109.38,179.05Zm80.5-93.41A5.66,5.66,0,1,1,195.53,80,5.66,5.66,0,0,1,189.88,85.64Z" style="fill:#ccc"/><path d="M134.26,97.41a3.71,3.71,0,0,0-5.25,0L116.12,110.3l-5.25,5.24L107.4,119a1.51,1.51,0,0,1-2.12,0l-5.86-5.86h0l-6.61-6.61h0a3.71,3.71,0,0,0-5.22,5.22l0,0,8.13,8.13h0l4.34,4.34a8.93,8.93,0,0,0,12.62,0l3.47-3.48,5.25-5.25,12.89-12.88A3.71,3.71,0,0,0,134.26,97.41Z" style="fill:#ccc"/><g style="clip-path:url(#clip-path)"><polygon points="97.33 163.39 243.73 247.92 243.73 78.86 97.33 163.39" style="fill:#999"/><polygon points="-19.15 151 123.29 59.94 -26.79 -17.89 -19.15 151" style="fill:#999"/></g><path d="M109.38,179.05a69.05,69.05,0,1,1,69-69.05A69.13,69.13,0,0,1,109.38,179.05Zm0-116a47,47,0,1,0,47,47A47,47,0,0,0,109.38,63.05Z" style="fill:#ccc"/></svg>