<svg xmlns="http://www.w3.org/2000/svg" width="69.69" height="25.53" viewBox="0 0 69.69 25.53"><title>Asset 6</title><g id="Layer_2" data-name="Layer 2"><g id="DESIGNED_BY_FREEPIK" data-name="DESIGNED BY FREEPIK"><path d="M30.5,10.6H28.78v5.32h-.69V10.6H26.37V10H30.5Z"/><path d="M34.75,14h-3a1.61,1.61,0,0,0,.39,1.1,1.28,1.28,0,0,0,1,.38A2.05,2.05,0,0,0,34.46,15v.64A2.49,2.49,0,0,1,33,16a1.84,1.84,0,0,1-1.42-.58,2.39,2.39,0,0,1-.51-1.63,2.32,2.32,0,0,1,.56-1.61,1.81,1.81,0,0,1,1.4-.63,1.61,1.61,0,0,1,1.29.54,2.28,2.28,0,0,1,.45,1.5Zm-.7-.57a1.37,1.37,0,0,0-.28-.92,1,1,0,0,0-.78-.32,1.07,1.07,0,0,0-.81.34,1.52,1.52,0,0,0-.42.9Z"/><path d="M38.67,15.72a2.15,2.15,0,0,1-1.16.3,1.93,1.93,0,0,1-1.46-.59,2.13,2.13,0,0,1-.56-1.54,2.33,2.33,0,0,1,.6-1.68,2.07,2.07,0,0,1,1.6-.64,2.22,2.22,0,0,1,1,.21v.7a1.74,1.74,0,0,0-1-.33,1.36,1.36,0,0,0-1.07.46,1.77,1.77,0,0,0-.42,1.23,1.63,1.63,0,0,0,.4,1.17,1.34,1.34,0,0,0,1.05.43,1.66,1.66,0,0,0,1-.37Z"/><path d="M43.22,15.92h-.68V13.47c0-.88-.33-1.32-1-1.32a1.06,1.06,0,0,0-.84.38,1.39,1.39,0,0,0-.34,1v2.41H39.7V9.63h.68v2.75h0a1.53,1.53,0,0,1,1.39-.81c1,0,1.43.58,1.43,1.73Z"/><path d="M48,15.92h-.68V13.5q0-1.35-1-1.35a1,1,0,0,0-.84.38,1.38,1.38,0,0,0-.34,1v2.42H44.5V11.67h.68v.71h0a1.52,1.52,0,0,1,1.39-.81,1.31,1.31,0,0,1,1.07.45,2.05,2.05,0,0,1,.37,1.3Z"/><path d="M51.08,16a1.94,1.94,0,0,1-1.5-.6A2.18,2.18,0,0,1,49,13.84a2.29,2.29,0,0,1,.58-1.67,2.11,2.11,0,0,1,1.58-.6,1.9,1.9,0,0,1,1.48.59,2.29,2.29,0,0,1,.53,1.62,2.27,2.27,0,0,1-.57,1.62A2,2,0,0,1,51.08,16Zm.05-3.87a1.29,1.29,0,0,0-1,.44,1.86,1.86,0,0,0-.38,1.23A1.72,1.72,0,0,0,50.1,15a1.29,1.29,0,0,0,1,.43,1.24,1.24,0,0,0,1-.42,1.85,1.85,0,0,0,.36-1.22,1.83,1.83,0,0,0-.36-1.22A1.21,1.21,0,0,0,51.13,12.15Z"/><path d="M55,15.92h-.68V9.63H55Z"/><path d="M58.11,16a1.94,1.94,0,0,1-1.5-.6,2.18,2.18,0,0,1-.56-1.58,2.29,2.29,0,0,1,.58-1.67,2.11,2.11,0,0,1,1.58-.6,1.9,1.9,0,0,1,1.48.59,2.29,2.29,0,0,1,.53,1.62,2.27,2.27,0,0,1-.57,1.62A2,2,0,0,1,58.11,16Zm0-3.87a1.29,1.29,0,0,0-1,.44,1.86,1.86,0,0,0-.38,1.23A1.72,1.72,0,0,0,57.13,15a1.29,1.29,0,0,0,1,.43,1.24,1.24,0,0,0,1-.42,1.85,1.85,0,0,0,.36-1.22,1.83,1.83,0,0,0-.36-1.22A1.21,1.21,0,0,0,58.16,12.15Z"/><path d="M64.93,15.58c0,1.56-.74,2.33-2.24,2.33a3.1,3.1,0,0,1-1.37-.29v-.68a2.86,2.86,0,0,0,1.37.39c1,0,1.56-.55,1.56-1.66V15.2h0a1.72,1.72,0,0,1-2.74.25A2.27,2.27,0,0,1,61,13.93a2.63,2.63,0,0,1,.52-1.72A1.76,1.76,0,0,1,63,11.57a1.39,1.39,0,0,1,1.28.69h0v-.59h.68ZM64.25,14v-.63a1.18,1.18,0,0,0-.34-.86,1.13,1.13,0,0,0-.85-.36,1.2,1.2,0,0,0-1,.45,2.06,2.06,0,0,0-.35,1.29A1.73,1.73,0,0,0,62.06,15a1.11,1.11,0,0,0,.9.42,1.18,1.18,0,0,0,.93-.4A1.51,1.51,0,0,0,64.25,14Z"/><path d="M69.69,11.67l-2,4.93c-.34.88-.83,1.31-1.46,1.31a1.47,1.47,0,0,1-.45-.05v-.61a1.29,1.29,0,0,0,.41.08c.34,0,.59-.21.77-.62l.34-.8-1.66-4.24h.75l1.15,3.27.09.32h0c0-.06,0-.17.08-.31L69,11.67Z"/><path d="M31.14,22.25A2.65,2.65,0,0,1,30,22.5a2.16,2.16,0,0,1-.86-.17,2,2,0,0,1-.66-.46,2.09,2.09,0,0,1-.42-.71,2.56,2.56,0,0,1-.15-.89,2.61,2.61,0,0,1,.16-.94,2.07,2.07,0,0,1,.45-.76,1.93,1.93,0,0,1,.71-.51,2.3,2.3,0,0,1,.93-.18,3,3,0,0,1,1,.17v.44a2.26,2.26,0,0,0-1-.24,1.92,1.92,0,0,0-.77.15,1.56,1.56,0,0,0-.56.42,1.77,1.77,0,0,0-.35.63,2.22,2.22,0,0,0-.13.79,2.48,2.48,0,0,0,.11.73,1.75,1.75,0,0,0,.33.6,1.52,1.52,0,0,0,.53.4,1.72,1.72,0,0,0,.74.15,2.3,2.3,0,0,0,1.13-.27Z"/><path d="M33.84,22.42V18H36v.38H34.26V20h1.63v.37H34.26V22h1.86v.38Z"/><path d="M41.86,22.42l-2.48-3.59-.09-.14a.64.64,0,0,1-.08-.14h0a1,1,0,0,0,0,.16v3.71H38.8V18h.46l2.44,3.54c0,.06.07.11.1.16s.05.1.08.14h0c0-.07,0-.15,0-.23a2.62,2.62,0,0,1,0-.29V18h.42v4.47Z"/><path d="M46.47,18.33v4.09h-.41V18.33H44.77V18h3v.38Z"/><path d="M50.24,22.42V18h2.18v.38H50.66V20h1.63v.37H50.66V22h1.86v.38Z"/><path d="M57.64,22.42,57,21.14a2.25,2.25,0,0,0-.19-.32,1.23,1.23,0,0,0-.19-.2.65.65,0,0,0-.22-.11,1,1,0,0,0-.25,0h-.49v1.94H55.2V18h1.29A1.62,1.62,0,0,1,57,18a1.41,1.41,0,0,1,.42.22,1.12,1.12,0,0,1,.29.36,1.21,1.21,0,0,1,.11.52,1.18,1.18,0,0,1-.07.43,1.07,1.07,0,0,1-.21.36,1,1,0,0,1-.32.26,1.31,1.31,0,0,1-.42.16h0l.16.1.15.14a1.73,1.73,0,0,1,.14.2c0,.07.09.15.14.25l.75,1.38Zm-2-4.09V20.1h.74a1.1,1.1,0,0,0,.41-.07.92.92,0,0,0,.32-.18.69.69,0,0,0,.2-.3.92.92,0,0,0,.08-.38.82.82,0,0,0-.25-.62,1.12,1.12,0,0,0-.73-.22Z"/><line x1="22.14" x2="22.14" y2="25.53" style="fill:none;stroke:#000;stroke-miterlimit:22.9260005950928;stroke-width:0.12102805384431px"/><path d="M11,5a4.23,4.23,0,0,1-1.59.93A4.32,4.32,0,0,1,7.84,5a4.53,4.53,0,0,1,0-1.87,4.51,4.51,0,0,1,1.59-.93A4.32,4.32,0,0,1,11,3.1,4.53,4.53,0,0,1,11,5" style="fill:#d42530;fill-rule:evenodd"/><path d="M18.7,18.75a4.38,4.38,0,0,1-1.59.95,4.14,4.14,0,0,1-1.57-.95,4,4,0,0,1,0-1.89,4.07,4.07,0,0,1,1.57-.95,3.84,3.84,0,0,1,1.59.95,4.63,4.63,0,0,1,0,1.89" style="fill:#aac238;fill-rule:evenodd"/><polygon points="9.4 18.3 3.43 12.64 6.25 9.77 12.78 9.75 15.36 12.64 9.4 18.3" style="fill:#d0d2d3;fill-rule:evenodd"/><path d="M3.28,18.75a4.74,4.74,0,0,1-1.59.95A4.07,4.07,0,0,1,.1,18.75a4.63,4.63,0,0,1,0-1.89,4,4,0,0,1,1.59-.95,4.11,4.11,0,0,1,1.59.95,4.81,4.81,0,0,1,0,1.89" style="fill:#1d64a0;fill-rule:evenodd"/><path d="M12.71,13.89v.77c0,.41-.16.55-.43.55s-.42-.14-.42-.55v-3c0-.39.17-.55.42-.55s.43.16.43.55v.59h.78v-.53c0-.9-.41-1.39-1.23-1.39S11,10.86,11,11.76v2.86c0,.88.42,1.37,1.22,1.37s1.23-.49,1.23-1.37v-.73ZM8.2,11.21h.85v4.72h.84V11.21h.86v-.78H8.2Zm-1.54,0c.29,0,.41.18.41.57v.55c0,.43-.2.58-.49.58H6.25v-1.7ZM8,15.93a1.91,1.91,0,0,1-.07-.65v-.86c0-.57-.14-1-.55-1.17.37-.18.53-.55.53-1.12V11.7c0-.86-.35-1.27-1.21-1.27H5.43v5.5h.82V13.7h.29c.37,0,.53.19.53.7v.86a1.82,1.82,0,0,0,.08.67Z" style="fill-rule:evenodd"/><path d="M14.59,15.45a12.72,12.72,0,0,0,1.84-2.25,11.48,11.48,0,0,0-1.84-2.26,18.32,18.32,0,0,1,.13,2.26,18.39,18.39,0,0,1-.13,2.25M5.94,19.51A10.26,10.26,0,0,0,8.75,19a17.64,17.64,0,0,1-1.94-1A15.37,15.37,0,0,1,5,16.7a12,12,0,0,0,.94,2.81M4.29,10.94A11.48,11.48,0,0,0,2.45,13.2a12.72,12.72,0,0,0,1.84,2.25,19.62,19.62,0,0,1,0-4.51M9.44,7.66A15.27,15.27,0,0,0,7,8.85a14.33,14.33,0,0,0-2.18,1.58,16,16,0,0,0,0,5.52A15.88,15.88,0,0,0,7,17.54a16,16,0,0,0,2.4,1.17,15.14,15.14,0,0,0,2.4-1.17A17.44,17.44,0,0,0,14,16a18.57,18.57,0,0,0,.22-2.75A18.73,18.73,0,0,0,14,10.43a15.6,15.6,0,0,0-2.2-1.58,14.46,14.46,0,0,0-2.4-1.19m3.5-.79a10.51,10.51,0,0,0-2.79.55,16,16,0,0,1,1.92,1,15.2,15.2,0,0,1,1.81,1.25,12.6,12.6,0,0,0-.94-2.8m3.77,5.86c.82-1.54,1-3,.39-4.16a4,4,0,0,0-3.63-1.7,13.67,13.67,0,0,1,1,3.29,12.33,12.33,0,0,1,2.24,2.57M5,9.67A15.2,15.2,0,0,1,6.81,8.42a14.9,14.9,0,0,1,1.94-1,10.65,10.65,0,0,0-2.81-.55A12.11,12.11,0,0,0,5,9.67M2.17,12.73a12.33,12.33,0,0,1,2.24-2.57,13.67,13.67,0,0,1,1-3.29,4,4,0,0,0-3.63,1.7c-.63,1.12-.43,2.62.39,4.16m7.27,6.51A12.33,12.33,0,0,1,6.2,20c.86,1.52,2,2.44,3.24,2.44s2.38-.92,3.24-2.44a12.33,12.33,0,0,1-3.24-.74m4.44-2.54A17,17,0,0,1,12.09,18h0a17.43,17.43,0,0,1-1.92,1,10.13,10.13,0,0,0,2.79.55,12.52,12.52,0,0,0,.94-2.81m-11.71-3a13,13,0,0,0,2.24,2.54,13.48,13.48,0,0,0,1,3.3,5.91,5.91,0,0,1-2-.33,7.94,7.94,0,0,1-1,.62c2.21,1.68,5.93,3.93,7,3.77s4.91-2.11,7.11-3.71a6.7,6.7,0,0,1-1.08-.7,5.41,5.41,0,0,1-2,.35,13.48,13.48,0,0,0,1-3.3,13,13,0,0,0,2.24-2.54,6.86,6.86,0,0,1,.71,1.94,11.05,11.05,0,0,1,1,.6c.27-2.83.29-7.32-.38-8.22a27.77,27.77,0,0,0-6.63-4.55,6.22,6.22,0,0,1,0,1.31,5.78,5.78,0,0,1,1.3,1.64,12.74,12.74,0,0,0-3.24.74A12.74,12.74,0,0,0,6.2,6.39,6.08,6.08,0,0,1,7.48,4.77a6.93,6.93,0,0,1,0-1.23C5,4.73,1.23,7,.82,8a31.25,31.25,0,0,0-.48,8.28,8.47,8.47,0,0,1,1.12-.61,6.46,6.46,0,0,1,.71-2" style="fill-rule:evenodd"/><path d="M31.25,8.92h-.83l-1-1.66a4,4,0,0,0-.26-.4,1.72,1.72,0,0,0-.27-.27.8.8,0,0,0-.29-.15,1.23,1.23,0,0,0-.35-.05h-.57V8.92H27V3h1.78a2.37,2.37,0,0,1,.72.1,1.54,1.54,0,0,1,.57.29,1.45,1.45,0,0,1,.38.5,1.67,1.67,0,0,1,.14.69,1.7,1.7,0,0,1-.1.57,1.38,1.38,0,0,1-.26.46,1.57,1.57,0,0,1-.42.35,1.86,1.86,0,0,1-.54.22v0a1.1,1.1,0,0,1,.26.15,1.94,1.94,0,0,1,.21.2l.19.26c.07.1.14.22.22.35ZM27.68,3.61V5.76h.95a1.51,1.51,0,0,0,.48-.07,1.21,1.21,0,0,0,.38-.23,1,1,0,0,0,.25-.36,1.06,1.06,0,0,0,.1-.48.93.93,0,0,0-.31-.74,1.34,1.34,0,0,0-.9-.27Z"/><path d="M35.38,7h-3a1.53,1.53,0,0,0,.38,1.09,1.29,1.29,0,0,0,1,.39A2.11,2.11,0,0,0,35.09,8v.64a2.49,2.49,0,0,1-1.48.4,1.8,1.8,0,0,1-1.42-.58,2.35,2.35,0,0,1-.51-1.62,2.36,2.36,0,0,1,.56-1.62,1.83,1.83,0,0,1,1.4-.62,1.61,1.61,0,0,1,1.29.54,2.27,2.27,0,0,1,.45,1.49Zm-.69-.58a1.4,1.4,0,0,0-.29-.91,1,1,0,0,0-.78-.33,1.11,1.11,0,0,0-.81.34,1.58,1.58,0,0,0-.42.9Z"/><path d="M36.15,8.77V8a2,2,0,0,0,1.22.41q.9,0,.9-.6a.55.55,0,0,0-.08-.29,1,1,0,0,0-.2-.2,1.8,1.8,0,0,0-.31-.17L37.3,7a3.22,3.22,0,0,1-.49-.23,1.27,1.27,0,0,1-.36-.25,1,1,0,0,1-.22-.33,1.32,1.32,0,0,1-.07-.42,1,1,0,0,1,.14-.53,1.22,1.22,0,0,1,.36-.39,1.75,1.75,0,0,1,.52-.23,2.09,2.09,0,0,1,.61-.08,2.38,2.38,0,0,1,1,.19v.69a1.88,1.88,0,0,0-1.08-.31,1.76,1.76,0,0,0-.34,0,.71.71,0,0,0-.26.13.44.44,0,0,0-.17.19.48.48,0,0,0-.06.24.54.54,0,0,0,.06.27.55.55,0,0,0,.17.2,1.47,1.47,0,0,0,.28.16l.38.15c.19.08.36.15.51.23a1.79,1.79,0,0,1,.38.25,1.27,1.27,0,0,1,.24.33,1.06,1.06,0,0,1,.09.45,1,1,0,0,1-.14.54,1.26,1.26,0,0,1-.37.39,1.87,1.87,0,0,1-.54.23,2.59,2.59,0,0,1-.63.07A2.4,2.4,0,0,1,36.15,8.77Z"/><path d="M43.42,7h-3a1.53,1.53,0,0,0,.38,1.09,1.3,1.3,0,0,0,1,.39A2.11,2.11,0,0,0,43.13,8v.64a2.47,2.47,0,0,1-1.48.4,1.77,1.77,0,0,1-1.41-.58,2.3,2.3,0,0,1-.52-1.62,2.36,2.36,0,0,1,.56-1.62,1.83,1.83,0,0,1,1.4-.62A1.61,1.61,0,0,1,43,5.12a2.27,2.27,0,0,1,.45,1.49Zm-.69-.58a1.4,1.4,0,0,0-.29-.91.94.94,0,0,0-.77-.33,1.13,1.13,0,0,0-.82.34,1.65,1.65,0,0,0-.42.9Z"/><path d="M47.49,8.92h-.68V8.26h0a1.56,1.56,0,0,1-2.3.43,1.16,1.16,0,0,1-.35-.89c0-.8.46-1.26,1.4-1.39l1.27-.18c0-.72-.29-1.08-.88-1.08a2.07,2.07,0,0,0-1.38.52V5A2.6,2.6,0,0,1,46,4.58c1,0,1.5.53,1.5,1.58Zm-.68-2.14-1,.14a1.64,1.64,0,0,0-.71.23.68.68,0,0,0-.24.6.67.67,0,0,0,.22.5.88.88,0,0,0,.59.2,1.12,1.12,0,0,0,.84-.35,1.28,1.28,0,0,0,.33-.9Z"/><path d="M51,5.37a.77.77,0,0,0-.51-.14.89.89,0,0,0-.73.41,1.93,1.93,0,0,0-.29,1.12V8.92h-.68V4.68h.68v.87h0a1.43,1.43,0,0,1,.44-.7A1.12,1.12,0,0,1,51,4.66Z"/><path d="M54.61,8.73A2.24,2.24,0,0,1,53.45,9,1.93,1.93,0,0,1,52,8.43a2.13,2.13,0,0,1-.56-1.53A2.33,2.33,0,0,1,52,5.22a2.09,2.09,0,0,1,1.6-.64,2.19,2.19,0,0,1,1,.21v.69a1.72,1.72,0,0,0-1-.33,1.39,1.39,0,0,0-1.07.47,1.8,1.8,0,0,0-.41,1.22A1.7,1.7,0,0,0,52.52,8a1.34,1.34,0,0,0,1,.43,1.66,1.66,0,0,0,1-.37Z"/><path d="M59.16,8.92h-.68V6.48c0-.89-.33-1.33-1-1.33a1.1,1.1,0,0,0-.84.38,1.44,1.44,0,0,0-.34,1v2.4h-.68V2.64h.68V5.38h0a1.54,1.54,0,0,1,1.39-.8c1,0,1.43.57,1.43,1.73Z"/><path d="M66.66,9A1,1,0,0,1,66.34,9a1,1,0,0,1-.25-.14,1.58,1.58,0,0,1-.23-.22l-.23-.3a2.56,2.56,0,0,1-.29.27,3.28,3.28,0,0,1-.37.22,2,2,0,0,1-.45.16A2.12,2.12,0,0,1,64,9a2.08,2.08,0,0,1-.63-.09,1.37,1.37,0,0,1-.48-.25,1.17,1.17,0,0,1-.32-.41,1.43,1.43,0,0,1-.11-.56,1.29,1.29,0,0,1,.27-.83,2,2,0,0,1,.78-.56l-.19-.17a1.2,1.2,0,0,1-.17-.21A1.23,1.23,0,0,1,63,5.66a1.08,1.08,0,0,1,0-.32,1,1,0,0,1,.09-.44.9.9,0,0,1,.25-.33,1.1,1.1,0,0,1,.37-.2,1.72,1.72,0,0,1,.47-.07,1.63,1.63,0,0,1,.45.07,1.1,1.1,0,0,1,.35.2.86.86,0,0,1,.23.3,1,1,0,0,1,.08.4.91.91,0,0,1-.22.63,1.64,1.64,0,0,1-.65.43,1.39,1.39,0,0,1,.4.21,2.16,2.16,0,0,1,.33.27,3,3,0,0,1,.28.33l.25.36a2.54,2.54,0,0,0,.39-.79,3,3,0,0,0,.13-.9,1.69,1.69,0,0,0,0-.23c0-.07,0-.14,0-.21h.5a.75.75,0,0,1,0,.2c0,.06,0,.14,0,.22a2.86,2.86,0,0,1-.06.58,3.41,3.41,0,0,1-.16.57,4.9,4.9,0,0,1-.24.52,4.92,4.92,0,0,1-.28.45l.2.27a1.57,1.57,0,0,0,.19.18.55.55,0,0,0,.19.12.8.8,0,0,0,.23,0,.62.62,0,0,0,.19,0l.2-.06v.48A.84.84,0,0,1,66.9,9ZM64,8.55a1.51,1.51,0,0,0,.44-.06,1.57,1.57,0,0,0,.38-.14,1.27,1.27,0,0,0,.31-.2,2.89,2.89,0,0,0,.25-.24c-.13-.2-.24-.37-.35-.52A4.1,4.1,0,0,0,64.7,7a1.83,1.83,0,0,0-.36-.26,4.34,4.34,0,0,0-.43-.21,1.82,1.82,0,0,0-.37.18,1.09,1.09,0,0,0-.29.23.85.85,0,0,0-.19.3,1.07,1.07,0,0,0-.07.41.79.79,0,0,0,.08.38.71.71,0,0,0,.21.27,1,1,0,0,0,.32.17A1.34,1.34,0,0,0,64,8.55Zm.79-3.24A.6.6,0,0,0,64.73,5a.49.49,0,0,0-.14-.18.53.53,0,0,0-.21-.11l-.21,0a.68.68,0,0,0-.5.17.59.59,0,0,0-.19.45.69.69,0,0,0,0,.25,1.06,1.06,0,0,0,.11.21A.91.91,0,0,0,63.8,6a.86.86,0,0,0,.2.13,1.66,1.66,0,0,0,.6-.32A.63.63,0,0,0,64.79,5.31Z"/></g></g></svg>