<?xml version="1.0" encoding="UTF-8"?>
<!DOCTYPE svg PUBLIC "-//W3C//DTD SVG 1.1//EN" "http://www.w3.org/Graphics/SVG/1.1/DTD/svg11.dtd">
<!-- Creator: CorelDRAW 2018 (64-Bit) -->
<svg xmlns="http://www.w3.org/2000/svg" xml:space="preserve" width="1096px" height="255px" version="1.1" style="shape-rendering:geometricPrecision; text-rendering:geometricPrecision; image-rendering:optimizeQuality; fill-rule:evenodd; clip-rule:evenodd"
viewBox="0 0 48720.3 11333.6"
 xmlns:xlink="http://www.w3.org/1999/xlink">
 <defs>
  <style type="text/css">
   <![CDATA[
    .fil3 {fill:#DE3B3D;fill-rule:nonzero}
    .fil0 {fill:#C0C91E;fill-rule:nonzero}
    .fil1 {fill:#34302F;fill-rule:nonzero}
    .fil2 {fill:#1D6FB6;fill-rule:nonzero}
   ]]>
  </style>
 </defs>
 <g id="Layer_x0020_1">
  <metadata id="CorelCorpID_0Corel-Layer"/>
  <path class="fil0" d="M14923.1 4835.3l-1926.3 2926.1c-190.3,287.3 -648.6,912.5 -1328,912.5l-3824.5 1.4 2015.5 -3076.2c195.9,-299.5 540.1,-763.8 1523.6,-763.8l3539.7 0z"/>
  <path class="fil1" d="M46909.1 8008.6l0 -764.3 376.1 0 -369.8 -1222.1 -6.3 0 0 -1187 500.6 0 1310.6 3840.8 -964.8 0 -225.9 -667.4 -620.5 0zm0 -3173.4l0 1187 -2.4 0 -374.3 1222.1 376.7 0 0 764.3 -626 0 -239.5 667.4 -960.6 0 1338.9 -3840.8 487.2 0zm-14629.2 3173.4l0 -764.3 376 0 -369.3 -1222.1 -6.7 0 0 -1187 500.9 0 1311 3840.8 -964.7 0 -226.2 -667.4 -621 0zm2119.2 667.4l593.9 -3840.8 896.8 0 709.8 2052.5 752 -2052.5 905.1 0 529.5 3840.8 -909.6 0 -256.1 -2210.6 -9.3 0 -839.9 2210.6 -362.5 0 -802.6 -2210.6 -9.3 0 -292.4 2210.6 -905.4 0zm5962 0l-1010.1 0 0 -3840.8 1010.1 0 0 3840.8zm763.4 0l0 -3840.8 898.8 0 1648.5 2348.3 8.9 0 0 -2348.3 899.9 0 0 3840.8 -899.9 0 -1647.6 -2353 -9.8 0 0 2353 -898.8 0zm-8844.6 -3840.8l0 1187 -2 0 -374.6 1222.1 376.6 0 0 764.3 -625.2 0 -240.5 667.4 -825.4 0 0 -385.3 1203.9 -3455.5 487.2 0zm-1691.1 845.5l134.1 0 0 -845.5 -134.1 0 0 845.5zm0 -845.5l0 845.5 -917.5 0 0 2995.3 -883.2 0 0 -2995.3 -1052 0 0 -845.5 2852.7 0zm0 3455.5l-134.5 385.3 134.5 0 0 -385.3zm-4704.4 -582l0 -1123.7 23.3 0c292.5,0 528.5,-233.4 528.5,-520.6 0,-287.4 -236,-520.5 -528.5,-520.5l-23.3 0 0 -708.7 133.8 0c386.7,0 720.5,83.4 967.2,287.7 233.8,194.4 332.8,488.2 332.8,899.3 0,265 -73.1,499.8 -219.8,705.4 -146.6,205.5 -358,331.7 -633.8,379.3l-17 4.1 1243.5 1565 -1095.4 0 -711.3 -967.3zm-2250.4 -2028l-1635 0 0 684.1 1574.6 0 0 845.6 -1574.6 0 0 685.7 1635 0 0 779.9 -2531.9 0 0 -3840.8 2531.9 0 0 845.5zm2250.4 -845.5l0 708.7 -551.9 0 0 1041.1 551.9 0 0 1123.7 -374.8 -510.1 -177.1 0 0 746.2 0 731.2 -885.5 0 0 -3840.8 1437.4 0zm-6782.5 2572.2l0 -809.5 122.5 0c252.4,0 456.9,-214.8 456.9,-479.3 0,-263.8 -204.5,-478.4 -456.9,-478.4l-122.5 0 0 -805 87 0c421.6,4 764.1,104.9 1026.7,305.8 263.2,200.2 395.2,521.2 395.2,962.3 0,451.8 -120.6,782.2 -360.6,990.6 -240.5,208.7 -582.7,313.5 -1025.8,313.5l-122.5 0zm0 -2572.2l0 805 -580.3 0 0 957.7 580.3 0 0 809.5 -580.3 0 0 466.8 0 801.8 -890.2 0 0 -801.8 0 -2722.7 0 -316.3 1470.5 0z"/>
  <path class="fil2" d="M5043.1 4835.3l3981 0c-332,211.6 -603,521.2 -867.6,964.4l-3023.7 4636.9c-190.5,282.6 -628.5,896.8 -1307.6,896.8l-3825.2 0.3 0 -0.3 3726.3 -5721.3c246.1,-377.3 665.6,-776.8 1316.8,-776.8z"/>
  <path class="fil3" d="M14923.1 3839.3l-1926.3 -2925.3c-190.3,-288 -648.6,-913.2 -1328,-913.2l-2731.8 -0.9 -1092.5 0 2015.3 3076.2c195.9,299 540.1,763.2 1523.6,763.2l3539.7 0z"/>
 </g>
</svg>
